<?xml version="1.0" encoding="utf-8"?>
<!-- Generator: Adobe Illustrator 24.2.0, SVG Export Plug-In . SVG Version: 6.00 Build 0)  -->
<svg version="1.1" id="Capa_1" xmlns="http://www.w3.org/2000/svg" xmlns:xlink="http://www.w3.org/1999/xlink" x="0px" y="0px"
	 viewBox="0 0 150 150" style="enable-background:new 0 0 150 150;" xml:space="preserve">
<style type="text/css">
	.st0{fill:#FF5A5F;}
</style>
<path class="st0" d="M143.3,106.6c-0.8-1.8-1.5-3.8-2.2-5.4c-1.2-2.7-2.4-5.2-3.5-7.6l-0.2-0.2C127,70.9,115.8,48,103.9,25.5
	l-0.4-0.9c-1.3-2.3-2.5-4.7-3.7-7c-1.5-2.7-3-5.6-5.4-8.3C89.5,3.3,82.6,0,75.2,0c-7.6,0-14.4,3.3-19.4,9c-2.3,2.7-4,5.6-5.5,8.3
	c-1.2,2.4-2.4,4.7-3.6,7l-0.5,0.9c-11.7,22.5-23,45.4-33.5,67.9l-0.1,0.3c-1.1,2.4-2.3,5-3.5,7.7c-0.8,1.7-1.5,3.4-2.3,5.4
	c-2,5.6-2.5,10.8-1.8,16.2c1.7,11.3,9.2,20.7,19.7,25c3.9,1.7,8,2.4,12.2,2.4c1.2,0,2.7-0.1,4-0.3c5-0.6,10.1-2.2,15.1-5.1
	c6.2-3.5,12.1-8.4,18.8-15.6c6.7,7.2,12.8,12.1,18.8,15.6c5,2.8,10.2,4.5,15.1,5.1c1.2,0.2,2.7,0.3,4,0.3c4.3,0,8.5-0.7,12.2-2.4
	c10.7-4.3,18-13.8,19.7-25C145.9,117.4,145.3,112.2,143.3,106.6z M75,114.4c-8.2-10.2-13.5-19.8-15.3-27.9c-0.8-3.5-0.9-6.4-0.4-9.2
	c0.3-2.4,1.2-4.5,2.4-6.3c2.8-4,7.7-6.6,13.3-6.6c5.6,0,10.6,2.4,13.3,6.6c1.2,1.8,2.1,3.9,2.4,6.3c0.5,2.7,0.4,5.9-0.4,9.2
	C88.5,94.4,83.2,104.1,75,114.4z M135.5,121.5c-1.1,7.8-6.4,14.6-13.8,17.6c-3.7,1.5-7.6,2-11.5,1.5c-3.8-0.4-7.6-1.7-11.5-3.9
	c-5.5-3-10.9-7.6-17.3-14.6c10-12.1,16-23.3,18.3-33.2c1.1-4.6,1.2-8.8,0.8-12.7c-0.6-3.8-2-7.2-4.1-10.2
	C91.7,59.2,83.8,55.3,75,55.3c-8.8,0-16.7,4-21.4,10.7c-2.1,3-3.5,6.4-4.1,10.2c-0.7,3.9-0.5,8.2,0.7,12.7
	c2.3,9.9,8.5,21.2,18.3,33.4c-6.2,6.9-11.8,11.5-17.3,14.6c-3.9,2.2-7.7,3.4-11.5,3.9c-4.1,0.4-8-0.2-11.5-1.5
	c-7.5-3-12.7-9.7-13.8-17.5c-0.5-3.8-0.2-7.5,1.4-11.7c0.5-1.5,1.2-3,2-4.9c1.1-2.4,2.3-4.9,3.5-7.5l0.2-0.4
	c10.4-22.4,21.7-45.1,33.3-67.4l0.5-0.9c1.2-2.2,2.4-4.7,3.6-6.9c1.2-2.4,2.6-4.7,4.3-6.6c3.2-3.6,7.5-5.5,12.1-5.5
	c4.7,0,8.9,2,12.1,5.5c1.7,2,3,4.3,4.3,6.6c1.2,2.2,2.4,4.7,3.6,6.9l0.5,0.9c11.5,22.3,22.5,44.9,33.2,67.6v0.2
	c1.2,2.4,2.2,5.1,3.5,7.5c0.8,1.8,1.5,3.3,2,4.8C135.6,113.8,136.1,117.6,135.5,121.5z"/>
</svg>
